<svg width="210px" height="210px" viewBox="0 0 210 210" version="1.1" xmlns="http://www.w3.org/2000/svg">
    <g stroke="none" stroke-width="1" fill="none" fill-rule="evenodd">
        <rect fill="#000000" x="0" y="60" width="150" height="150"></rect>
        <polygon fill="#000000" points="60 0 210 0 150 60 0 60"></polygon>
        <polygon fill="#000000" transform="translate(180, 105) scale(-1, 1) rotate(90) translate(-180, -105)"
                 points="135 75 285 75 225 136 74 136"></polygon>

        <rect fill="#009D54" x="3" y="63" width="44" height="44" rx="4"></rect>
        <rect fill="#009D54" x="53" y="63" width="44" height="44" rx="4"></rect>
        <rect fill="#009D54" x="103" y="63" width="44" height="44" rx="4"></rect>
        <rect fill="#009D54" x="3" y="113" width="44" height="44" rx="4"></rect>
        <rect fill="#009D54" x="53" y="113" width="44" height="44" rx="4"></rect>
        <rect fill="#009D54" x="103" y="113" width="44" height="44" rx="4"></rect>
        <rect fill="#009D54" x="3" y="163" width="44" height="44" rx="4"></rect>
        <rect fill="#009D54" x="53" y="163" width="44" height="44" rx="4"></rect>
        <rect fill="#009D54" x="103" y="163" width="44" height="44" rx="4"></rect>

        <path fill="#FFFFFF"
              d="M25.1065225,42 L61.1065225,42 C63.3156615,42 63.7979829,43.3798784 62.1838174,44.9865249 L51.9543495,55.1683431 C50.340184,56.7749897 47.2407834,58 45.0316444,58 L9.03164438,58 C6.82250538,58 6.34018403,56.7749897 7.9543495,55.1683431 L18.1838174,44.9865249 C19.7979829,43.3798784 22.8973835,42 25.1065225,42 Z"></path>
        <path fill="#FFFFFF"
              d="M75.1065225,42 L111.106523,42 C113.315662,42 113.797983,43.3798784 112.183817,44.9865249 L101.954349,55.1683431 C100.340184,56.7749897 97.2407834,58 95.0316444,58 L59.0316444,58 C56.8225054,58 56.340184,56.7749897 57.9543495,55.1683431 L68.1838174,44.9865249 C69.7979829,43.3798784 72.8973835,42 75.1065225,42 Z"></path>
        <path fill="#FFFFFF"
              d="M125.106523,42 L161.106523,42 C163.315662,42 163.797983,43.3798784 162.183817,44.9865249 L151.954349,55.1683431 C150.340184,56.7749897 147.240783,58 145.031644,58 L109.031644,58 C106.822505,58 106.340184,56.7749897 107.954349,55.1683431 L118.183817,44.9865249 C119.797983,43.3798784 122.897384,42 125.106523,42 Z"></path>
        <path fill="#FFFFFF"
              d="M65.1065225,2.07743402 L101.106523,2.07743402 C103.315662,2.07743402 103.797983,3.37987839 102.183817,4.98652493 L91.9543495,15.1683431 C90.340184,16.7749897 87.2407834,18 85.0316444,18 L49.0316444,18 C46.8225054,18 46.340184,16.7749897 47.9543495,15.1683431 L58.1838174,4.98652493 C59.7979829,3.37987839 62.8973835,2.07743402 65.1065225,2.07743402 Z"></path>
        <path fill="#FFFFFF"
              d="M115.106523,2.07743402 L151.106523,2.07743402 C153.315662,2.07743402 153.797983,3.37987839 152.183817,4.98652493 L141.954349,15.1683431 C140.340184,16.7749897 137.240783,18 135.031644,18 L99.0316444,18 C96.8225054,18 96.340184,16.7749897 97.9543495,15.1683431 L108.183817,4.98652493 C109.797983,3.37987839 112.897384,2.07743402 115.106523,2.07743402 Z"></path>
        <path fill="#FFFFFF"
              d="M165.106523,2.07743402 L201.106523,2.07743402 C203.315662,2.07743402 203.797983,3.37987839 202.183817,4.98652493 L191.954349,15.1683431 C190.340184,16.7749897 187.240783,18 185.031644,18 L149.031644,18 C146.822505,18 146.340184,16.7749897 147.954349,15.1683431 L158.183817,4.98652493 C159.797983,3.37987839 162.897384,2.07743402 165.106523,2.07743402 Z"></path>
        <path fill="#FFFFFF"
              d="M45.1065225,22 L81.1065225,22 C83.3156615,22 83.7979829,23.3798784 82.1838174,24.9865249 L71.9543495,35.1683431 C70.340184,36.7749897 67.2407834,38 65.0316444,38 L29.0316444,38 C26.8225054,38 26.340184,36.7749897 27.9543495,35.1683431 L38.1838174,24.9865249 C39.7979829,23.3798784 42.8973835,22 45.1065225,22 Z"></path>
        <path fill="#FFFFFF"
              d="M95.1065225,22 L131.106523,22 C133.315662,22 133.797983,23.3798784 132.183817,24.9865249 L121.954349,35.1683431 C120.340184,36.7749897 117.240783,38 115.031644,38 L79.0316444,38 C76.8225054,38 76.340184,36.7749897 77.9543495,35.1683431 L88.1838174,24.9865249 C89.7979829,23.3798784 92.8973835,22 95.1065225,22 Z"></path>
        <path fill="#FFFFFF"
              d="M145.106523,22 L181.106523,22 C183.315662,22 183.797983,23.3798784 182.183817,24.9865249 L171.954349,35.1683431 C170.340184,36.7749897 167.240783,38 165.031644,38 L129.031644,38 C126.822505,38 126.340184,36.7749897 127.954349,35.1683431 L138.183817,24.9865249 C139.797983,23.3798784 142.897384,22 145.106523,22 Z"></path>

        <path fill="#DC422F"
              d="M150.106523,67 L186.106523,67 C188.315662,67 188.797983,68.3798784 187.183817,69.9865249 L176.954349,80.1683431 C175.340184,81.7749897 172.240783,83 170.031644,83 L134.031644,83 C131.822505,83 131.340184,81.7749897 132.954349,80.1683431 L143.183817,69.9865249 C144.797983,68.3798784 147.897384,67 150.106523,67 Z"
              transform="translate(160, 75) scale(1, -1) rotate(-90) translate(-160, -75)"></path>
        <path fill="#DC422F"
              d="M170.106523,47 L206.106523,47 C208.315662,47 208.797983,48.3798784 207.183817,49.9865249 L196.954349,60.1683431 C195.340184,61.7749897 192.240783,63 190.031644,63 L154.031644,63 C151.822505,63 151.340184,61.7749897 152.954349,60.1683431 L163.183817,49.9865249 C164.797983,48.3798784 167.897384,47 170.106523,47 Z"
              transform="translate(180, 55) scale(1, -1) rotate(-90) translate(-180, -55)"></path>
        <path fill="#DC422F"
              d="M190.106523,27 L226.106523,27 C228.315662,27 228.797983,28.3798784 227.183817,29.9865249 L216.954349,40.1683431 C215.340184,41.7749897 212.240783,43 210.031644,43 L174.031644,43 C171.822505,43 171.340184,41.7749897 172.954349,40.1683431 L183.183817,29.9865249 C184.797983,28.3798784 187.897384,27 190.106523,27 Z"
              transform="translate(200, 35) scale(1, -1) rotate(-90) translate(-200, -35)"></path>
        <path fill="#DC422F"
              d="M150.037439,117.146517 L186.037439,117.146517 C188.246578,117.146517 188.728899,118.448962 187.114734,120.055608 L176.885266,130.237427 C175.271101,131.844073 172.1717,133.146517 169.962561,133.146517 L133.962561,133.146517 C131.753422,133.146517 131.271101,131.844073 132.885266,130.237427 L143.114734,120.055608 C144.728899,118.448962 147.8283,117.146517 150.037439,117.146517 Z"
              transform="translate(160, 125) scale(1, -1) rotate(-90) translate(-160, -125)"></path>
        <path fill="#DC422F"
              d="M170.037439,97.1465175 L206.037439,97.1465175 C208.246578,97.1465175 208.728899,98.4489618 207.114734,100.055608 L196.885266,110.237427 C195.271101,111.844073 192.1717,113.146517 189.962561,113.146517 L153.962561,113.146517 C151.753422,113.146517 151.271101,111.844073 152.885266,110.237427 L163.114734,100.055608 C164.728899,98.4489618 167.8283,97.1465175 170.037439,97.1465175 Z"
              transform="translate(180, 105) scale(1, -1) rotate(-90) translate(-180, -105)"></path>
        <path fill="#DC422F"
              d="M190.037439,77.1465175 L226.037439,77.1465175 C228.246578,77.1465175 228.728899,78.4489618 227.114734,80.0556084 L216.885266,90.2374266 C215.271101,91.8440731 212.1717,93.1465175 209.962561,93.1465175 L173.962561,93.1465175 C171.753422,93.1465175 171.271101,91.8440731 172.885266,90.2374266 L183.114734,80.0556084 C184.728899,78.4489618 187.8283,77.1465175 190.037439,77.1465175 Z"
              transform="translate(200, 85) scale(1, -1) rotate(-90) translate(-200, -85)"></path>
        <path fill="#DC422F"
              d="M150.106523,167 L186.106523,167 C188.315662,167 188.797983,168.379878 187.183817,169.986525 L176.954349,180.168343 C175.340184,181.77499 172.240783,183 170.031644,183 L134.031644,183 C131.822505,183 131.340184,181.77499 132.954349,180.168343 L143.183817,169.986525 C144.797983,168.379878 147.897384,167 150.106523,167 Z"
              transform="translate(160, 175) scale(1, -1) rotate(-90) translate(-160, -175)"></path>
        <path fill="#DC422F"
              d="M170.106523,147 L206.106523,147 C208.315662,147 208.797983,148.379878 207.183817,149.986525 L196.954349,160.168343 C195.340184,161.77499 192.240783,163 190.031644,163 L154.031644,163 C151.822505,163 151.340184,161.77499 152.954349,160.168343 L163.183817,149.986525 C164.797983,148.379878 167.897384,147 170.106523,147 Z"
              transform="translate(180, 155) scale(1, -1) rotate(-90) translate(-180, -155)"></path>
        <path fill="#DC422F"
              d="M190.106523,127 L226.106523,127 C228.315662,127 228.797983,128.379878 227.183817,129.986525 L216.954349,140.168343 C215.340184,141.77499 212.240783,143 210.031644,143 L174.031644,143 C171.822505,143 171.340184,141.77499 172.954349,140.168343 L183.183817,129.986525 C184.797983,128.379878 187.897384,127 190.106523,127 Z"
              transform="translate(200, 135) scale(1, -1) rotate(-90) translate(-200, -135)"></path>
    </g>
</svg>
