<?xml version="1.0" standalone="no"?>
<!DOCTYPE svg PUBLIC "-//W3C//DTD SVG 20010904//EN"
 "http://www.w3.org/TR/2001/REC-SVG-20010904/DTD/svg10.dtd">
<svg version="1.0" xmlns="http://www.w3.org/2000/svg"
 width="483.000000pt" height="483.000000pt" viewBox="0 0 483.000000 483.000000"
 preserveAspectRatio="xMidYMid meet">
<metadata>
Created by potrace 1.11, written by Peter Selinger 2001-2013
</metadata>
<g transform="translate(0.000000,483.000000) scale(0.100000,-0.100000)"
fill="#000000" stroke="none">
<path d="M2125 4658 c-154 -82 -630 -334 -1057 -561 l-778 -412 3 -1278 2
-1278 1058 -560 1057 -561 1058 561 1057 560 3 1278 2 1278 -527 279 c-1226
650 -1597 846 -1597 845 -1 -1 -127 -68 -281 -151z m331 63 c47 -9 447 -213
487 -249 20 -18 23 -65 4 -80 -7 -6 -112 -64 -232 -129 l-220 -118 -85 0 -85
0 -220 118 c-120 65 -225 123 -232 129 -19 15 -16 62 5 80 9 9 112 66 227 128
177 94 230 117 296 129 4 1 28 -3 55 -8z m-450 -495 c122 -64 230 -126 240
-137 14 -15 16 -25 8 -46 -7 -22 -52 -50 -244 -152 l-235 -125 -70 0 -71 0
-224 118 c-124 65 -233 125 -242 134 -25 21 -22 54 5 79 21 20 285 164 412
225 53 26 68 29 130 25 67 -4 80 -9 291 -121z m1404 5 c118 -62 225 -122 238
-134 26 -25 29 -58 5 -79 -10 -9 -119 -69 -243 -134 l-224 -118 -71 0 -70 0
-235 125 c-192 102 -237 130 -244 152 -8 21 -6 31 8 46 18 20 433 244 471 254
11 3 49 5 85 4 62 -2 75 -8 280 -116z m-2360 -262 c61 -14 477 -235 491 -261
25 -47 10 -60 -233 -189 l-233 -124 -80 0 -80 0 -221 118 c-122 64 -229 126
-239 137 -15 16 -17 26 -9 48 8 22 49 48 229 144 255 136 288 147 375 127z
m1417 1 c55 -13 452 -223 480 -255 22 -25 22 -55 -1 -74 -6 -5 -111 -63 -231
-128 l-220 -117 -85 0 -85 0 -220 117 c-243 131 -241 129 -248 158 -9 35 33
66 247 179 246 130 275 140 363 120z m1573 -75 c291 -149 324 -168 334 -197 8
-22 6 -32 -9 -48 -10 -11 -117 -73 -239 -137 l-221 -118 -80 0 -80 0 -233 124
c-243 129 -258 142 -233 189 13 24 416 241 481 259 76 21 123 9 280 -72z
m-2034 -418 c122 -65 229 -126 239 -137 15 -16 17 -26 9 -47 -7 -21 -54 -50
-244 -151 l-234 -125 -71 -1 -70 0 -225 118 c-124 65 -233 126 -242 134 -21
17 -23 50 -5 73 12 15 270 157 412 226 63 31 77 34 140 31 68 -4 78 -8 291
-121z m1178 112 c65 -18 456 -229 473 -256 13 -19 14 -28 4 -46 -15 -28 -440
-256 -496 -266 -78 -14 -126 3 -347 120 -117 61 -221 119 -230 127 -24 20 -23
57 1 79 25 23 403 224 450 240 46 15 96 16 145 2z m-2543 -144 c224 -119 265
-150 295 -221 11 -26 14 -99 14 -317 0 -271 -1 -284 -20 -305 -12 -12 -31 -22
-43 -22 -36 0 -447 222 -489 264 -64 64 -69 97 -66 404 3 249 4 272 22 291 11
12 30 21 44 21 14 0 123 -52 243 -115z m3825 94 c18 -19 19 -42 22 -291 3
-307 -2 -340 -66 -404 -42 -42 -453 -264 -489 -264 -12 0 -31 10 -43 22 -19
21 -20 34 -20 307 0 390 -15 363 312 538 117 62 225 113 239 113 14 0 34 -9
45 -21z m-1823 -403 c276 -144 301 -159 311 -189 8 -22 6 -31 -9 -47 -11 -11
-119 -72 -240 -137 l-220 -117 -75 0 -75 0 -220 117 c-121 65 -229 126 -240
137 -15 16 -17 25 -9 47 10 30 35 45 311 189 159 82 164 84 233 84 69 0 74 -2
233 -84z m-1291 -68 c115 -61 222 -124 239 -140 63 -64 64 -66 67 -378 3 -319
0 -333 -56 -338 -26 -3 -78 20 -249 110 -327 171 -312 147 -313 536 l0 283 26
25 c19 20 31 24 51 19 14 -3 120 -56 235 -117z m2404 87 c11 -11 14 -70 14
-304 l0 -291 -27 -42 c-14 -24 -32 -48 -39 -56 -28 -27 -449 -243 -476 -244
-16 -1 -34 4 -41 11 -9 9 -12 92 -12 314 l0 302 25 35 c39 55 38 55 272 179
226 120 252 129 284 96z m-1691 -463 c185 -99 224 -124 252 -160 50 -67 54
-95 51 -391 -3 -248 -4 -271 -22 -290 -11 -12 -30 -21 -44 -21 -14 0 -120 50
-236 111 -331 174 -329 169 -324 561 4 372 -6 366 323 190z m988 78 c15 -24
17 -64 17 -292 0 -258 -1 -264 -25 -313 -13 -27 -32 -59 -42 -70 -28 -32 -460
-257 -486 -253 -12 2 -30 13 -39 25 -16 19 -18 49 -18 295 0 248 2 277 20 315
10 24 28 53 40 65 32 35 470 265 495 260 12 -2 29 -16 38 -32z m-2418 -176
c121 -64 231 -126 244 -138 13 -11 34 -43 47 -71 23 -49 24 -57 24 -325 0
-306 -3 -320 -61 -320 -32 0 -446 214 -486 252 -12 12 -32 40 -43 63 -19 38
-20 61 -20 328 0 274 1 288 20 307 11 11 28 20 38 20 9 0 116 -52 237 -116z
m3824 91 c14 -13 17 -57 19 -278 2 -165 -1 -281 -7 -312 -18 -82 -51 -109
-297 -238 -122 -65 -228 -117 -235 -117 -8 0 -25 7 -37 16 -22 15 -22 17 -22
306 0 315 2 326 58 384 36 36 462 262 486 258 11 -2 27 -11 35 -19z m-3107
-471 c120 -64 228 -126 239 -137 12 -12 30 -40 42 -62 21 -38 22 -52 22 -328
l0 -289 -24 -19 c-13 -10 -30 -19 -39 -19 -8 0 -118 55 -244 122 -240 127
-266 146 -294 225 -17 50 -20 553 -3 586 31 58 54 52 301 -79z m2396 100 c22
-15 22 -17 22 -305 0 -265 -2 -293 -19 -327 -10 -20 -27 -46 -38 -58 -17 -20
-375 -215 -456 -249 -37 -15 -38 -15 -63 10 l-25 25 3 294 3 294 30 44 c27 38
58 58 260 165 127 68 237 123 245 123 9 0 26 -7 38 -16z m-1687 -470 c316
-167 309 -155 309 -536 0 -385 10 -377 -304 -212 -121 64 -233 128 -248 142
-15 14 -36 45 -48 68 -19 41 -20 63 -20 327 0 240 2 286 16 305 28 40 63 29
295 -94z m993 94 c14 -19 16 -65 16 -305 0 -264 -1 -286 -20 -327 -12 -23 -33
-54 -48 -68 -15 -14 -127 -78 -248 -142 -314 -165 -304 -173 -304 212 0 380
-6 369 310 537 229 122 266 134 294 93z m-2417 -193 c119 -63 228 -125 241
-137 14 -13 35 -45 48 -73 23 -49 24 -57 24 -326 0 -263 -1 -276 -20 -297 -12
-12 -31 -22 -43 -22 -26 0 -451 222 -484 253 -13 11 -32 39 -43 62 -19 38 -20
61 -20 328 0 274 1 288 20 307 11 11 29 20 40 20 11 0 118 -52 237 -115z
m3809 106 c30 -2 35 -59 32 -337 -3 -271 -4 -280 -26 -319 -13 -23 -44 -55
-70 -72 -96 -63 -417 -226 -445 -226 -57 1 -57 -1 -57 322 l0 296 33 50 c31
46 49 57 262 171 126 67 236 120 244 119 9 -2 21 -4 27 -4z m-3092 -486 c312
-165 300 -145 304 -496 4 -278 -3 -334 -41 -348 -32 -12 -46 -6 -282 119 -226
120 -254 142 -281 219 -18 50 -19 555 -1 591 13 25 51 41 77 31 9 -3 110 -55
224 -116z m2394 99 c22 -15 22 -17 22 -305 0 -319 -2 -331 -67 -390 -40 -37
-446 -249 -476 -249 -54 0 -57 19 -57 315 0 148 5 286 10 305 19 69 56 98 286
221 120 64 228 118 239 118 11 1 31 -6 43 -15z m-1690 -466 c316 -166 312
-159 312 -538 0 -154 -4 -259 -11 -279 -11 -31 -45 -49 -79 -42 -23 5 -411
211 -446 237 -18 13 -44 47 -58 76 l-26 52 0 279 c0 178 4 286 11 298 12 24
46 38 72 31 10 -2 111 -54 225 -114z m997 89 c12 -18 15 -71 15 -302 l0 -281
-26 -52 c-14 -29 -40 -63 -58 -76 -35 -26 -423 -232 -446 -237 -34 -7 -68 11
-79 42 -7 20 -11 125 -11 279 0 379 -4 371 313 539 115 60 216 111 225 113 27
6 52 -3 67 -25z"/>
</g>
</svg>
