<?xml version="1.0" standalone="no"?>
<!DOCTYPE svg PUBLIC "-//W3C//DTD SVG 20010904//EN"
 "http://www.w3.org/TR/2001/REC-SVG-20010904/DTD/svg10.dtd">
<svg version="1.0" xmlns="http://www.w3.org/2000/svg"
 width="700.000000pt" height="700.000000pt" viewBox="0 0 700.000000 700.000000"
 preserveAspectRatio="xMidYMid meet">
<metadata>
Created by potrace 1.11, written by Peter Selinger 2001-2013
</metadata>
<g transform="translate(0.000000,700.000000) scale(0.100000,-0.100000)"
fill="#000000" stroke="none">
<path d="M1002 5997 l-1002 -1002 0 -2498 0 -2497 2499 0 2499 0 1000 983
1000 982 1 2518 1 2517 -2498 0 -2497 0 -1003 -1003z m2419 923 c42 -23 23
-50 -178 -252 -165 -165 -209 -204 -263 -231 l-65 -32 -659 -3 c-596 -2 -661
-1 -677 14 -10 9 -15 23 -12 32 10 30 396 413 437 434 92 48 75 47 754 47 426
1 650 -3 663 -9z m1673 -6 c9 -8 16 -18 16 -21 0 -39 -401 -430 -478 -466 -47
-22 -50 -22 -707 -25 -715 -3 -706 -3 -690 49 8 28 314 340 391 400 105 81 76
78 806 79 575 0 648 -2 662 -16z m1664 4 c28 -28 9 -55 -185 -250 -165 -165
-209 -204 -263 -231 l-65 -32 -659 -3 c-483 -2 -662 1 -672 9 -32 27 -13 54
174 242 208 209 221 221 301 253 l56 24 650 0 c493 0 654 -3 663 -12z m167
-180 c3 -13 4 -313 3 -668 l-3 -645 -24 -55 c-20 -45 -63 -94 -230 -262 -217
-220 -241 -236 -262 -181 -6 17 -9 251 -7 662 l3 636 33 70 c29 61 58 95 230
267 160 161 202 198 224 198 20 0 29 -6 33 -22z m-4181 -478 c19 -7 26 -17 26
-37 0 -22 -37 -64 -187 -215 -104 -104 -208 -202 -233 -218 -95 -60 -93 -60
-776 -60 -380 0 -633 4 -648 10 -54 20 -37 45 187 266 183 182 220 213 267
232 30 11 64 23 75 25 43 10 1264 7 1289 -3z m1674 -6 c44 -31 30 -50 -180
-257 -167 -163 -215 -204 -268 -230 l-65 -32 -648 -3 c-445 -2 -653 1 -667 8
-12 7 -20 21 -20 38 0 22 37 64 198 223 194 193 237 227 327 255 30 10 190 13
670 13 555 1 633 -1 653 -15z m1671 -3 c12 -12 17 -28 14 -39 -2 -11 -98 -112
-211 -224 -183 -181 -214 -208 -267 -229 l-60 -24 -644 -3 c-568 -2 -646 -1
-667 13 -13 8 -24 23 -24 32 0 19 355 381 416 423 22 16 67 38 100 49 57 20
82 20 692 21 611 0 633 -1 651 -19z m160 -165 c9 -10 11 -188 9 -677 l-3 -664
-29 -56 c-21 -43 -77 -106 -230 -258 -111 -111 -209 -201 -218 -201 -38 0 -38
9 -36 686 l3 659 29 60 c42 86 415 465 457 465 4 0 12 -6 18 -14z m-4155 -505
c16 -17 16 -22 2 -48 -8 -15 -99 -112 -203 -214 -133 -132 -204 -195 -243
-215 l-55 -29 -669 -3 c-688 -3 -696 -2 -696 36 0 16 361 386 414 424 16 12
54 32 85 44 l56 24 646 0 c623 0 647 -1 663 -19z m1657 9 c11 -7 19 -21 19
-38 0 -38 -379 -409 -460 -449 l-55 -28 -664 -3 c-487 -2 -667 1 -677 9 -33
27 -13 54 184 250 192 192 245 233 332 260 40 12 1298 11 1321 -1z m1670 0
c42 -23 23 -50 -182 -256 -152 -153 -215 -209 -258 -230 l-56 -29 -670 -3
c-614 -2 -671 -1 -682 14 -20 28 4 57 209 260 186 184 218 210 297 239 46 17
1310 21 1342 5z m170 -187 c6 -17 9 -251 7 -662 l-3 -636 -24 -60 c-21 -53
-48 -84 -229 -267 -170 -172 -211 -208 -234 -208 -20 0 -29 6 -33 23 -3 12 -4
312 -3 667 l3 645 29 60 c23 48 69 101 230 263 212 213 236 230 257 175z
m1330 -320 c18 -21 26 -1181 9 -1282 -19 -112 -46 -150 -257 -363 -108 -108
-204 -199 -215 -201 -10 -3 -25 2 -33 10 -14 13 -15 98 -13 672 l3 656 32 65
c27 54 66 98 231 263 109 108 205 197 214 197 8 0 22 -7 29 -17z m-5432 -201
c19 -9 44 -30 55 -45 21 -28 21 -37 21 -665 0 -709 3 -681 -68 -719 -30 -17
-79 -18 -669 -18 -628 0 -637 0 -665 21 -65 48 -63 24 -63 712 0 695 -2 669
68 710 37 21 40 22 662 22 576 0 628 -1 659 -18z m1666 4 c19 -8 44 -30 55
-48 20 -32 20 -45 18 -680 l-3 -648 -31 -30 c-17 -17 -48 -35 -70 -40 -51 -12
-1197 -12 -1248 0 -22 5 -53 23 -70 40 l-31 30 -3 648 c-2 635 -2 648 18 680
38 63 23 61 708 62 520 0 628 -2 657 -14z m1673 -6 c18 -11 41 -34 52 -52 19
-32 20 -52 20 -658 0 -690 2 -666 -63 -714 -28 -21 -37 -21 -665 -21 -590 0
-639 1 -669 18 -71 38 -68 10 -68 719 0 628 0 637 21 665 48 65 24 63 714 63
606 0 626 -1 658 -20z m1432 -469 c6 -13 10 -233 10 -644 0 -684 0 -682 -60
-777 -16 -25 -114 -129 -218 -232 -192 -192 -219 -211 -242 -168 -7 13 -10
222 -8 662 l3 643 24 60 c21 53 47 83 230 268 211 212 237 231 261 188z m-665
-675 c3 -11 4 -311 3 -666 l-3 -645 -32 -65 c-27 -54 -66 -98 -231 -262 -109
-109 -205 -198 -214 -198 -43 0 -43 0 -43 679 l0 646 33 70 c29 61 58 95 225
263 106 107 201 197 212 202 27 10 44 2 50 -24z m1325 -325 c6 -13 10 -235 10
-651 0 -613 -1 -632 -21 -693 -29 -85 -62 -126 -261 -324 -140 -139 -180 -173
-201 -173 -20 0 -30 7 -38 26 -6 17 -9 253 -7 658 l3 631 24 60 c21 53 48 84
234 273 116 116 219 212 229 212 9 0 22 -9 28 -19z m-5400 -217 c17 -17 35
-48 40 -70 12 -51 12 -1197 0 -1248 -5 -22 -23 -53 -40 -70 l-30 -31 -648 -3
c-635 -2 -648 -2 -680 18 -63 39 -62 26 -62 710 0 684 -1 671 62 710 32 20 45
20 680 18 l648 -3 30 -31z m1647 16 c65 -39 63 -13 63 -712 0 -610 -1 -634
-20 -665 -39 -65 -14 -63 -710 -63 -696 0 -671 -2 -710 63 -19 31 -20 55 -20
665 0 699 -2 673 63 712 31 19 55 20 667 20 612 0 636 -1 667 -20z m1671 0
c63 -39 62 -26 62 -711 0 -687 2 -670 -64 -710 -30 -18 -59 -19 -678 -17
l-648 3 -30 31 c-17 17 -35 48 -40 70 -12 51 -12 1197 -1 1247 10 41 43 84 76
97 11 5 306 9 655 9 620 1 636 0 668 -19z m1417 -1125 l0 -670 -28 -59 c-22
-49 -64 -96 -225 -258 -159 -160 -203 -198 -225 -198 -19 0 -28 6 -32 23 -3
12 -4 315 -3 672 l3 650 28 55 c21 40 82 109 230 258 167 168 206 202 227 200
l25 -3 0 -670z m-671 -7 c14 -20 16 -97 16 -643 0 -660 -1 -668 -50 -765 -28
-55 -379 -413 -423 -431 -59 -25 -58 -43 -55 676 l3 650 28 61 c24 51 61 94
236 268 114 113 212 206 218 206 7 0 19 -10 27 -22z m-4087 -531 c71 -38 68
-10 68 -719 0 -628 0 -637 -21 -665 -48 -65 -24 -63 -714 -63 -606 0 -626 1
-658 20 -18 11 -41 34 -52 52 -19 32 -20 52 -20 656 0 663 0 663 48 706 12 10
36 22 54 26 18 5 310 8 648 7 567 -2 618 -3 647 -20z m1627 13 c22 -5 53 -23
70 -40 l31 -30 3 -648 c2 -619 1 -648 -17 -678 -40 -66 -23 -64 -710 -64 -685
0 -672 -1 -711 62 -19 32 -20 49 -20 666 0 543 2 639 15 666 17 35 45 56 90
67 44 10 1203 10 1249 -1z m1713 -16 c65 -48 63 -24 63 -714 0 -606 -1 -626
-20 -658 -11 -18 -34 -41 -52 -52 -32 -19 -52 -20 -658 -20 -690 0 -666 -2
-714 63 -21 28 -21 39 -24 643 -3 627 -1 669 36 713 40 50 52 51 719 48 611
-2 622 -2 650 -23z"/>
</g>
</svg>
